<svg width="94" height="31" viewBox="0 0 94 31" fill="none" xmlns="http://www.w3.org/2000/svg">
<g clip-path="url(#clip0_121_3)">
<path d="M8.72728 24.3409C6.98486 24.3409 5.48865 23.9583 4.23865 23.1932C2.99622 22.428 2.03789 21.3712 1.36365 20.0227C0.696981 18.6667 0.363647 17.1061 0.363647 15.3409C0.363647 13.5682 0.704556 12.0038 1.38637 10.6477C2.06819 9.28408 3.03031 8.22347 4.27274 7.4659C5.52274 6.70075 7.00001 6.31817 8.70456 6.31817C10.1212 6.31817 11.375 6.57954 12.4659 7.10226C13.5644 7.61741 14.4394 8.34847 15.0909 9.29544C15.7424 10.2348 16.1136 11.3333 16.2045 12.5909H12.2727C12.1136 11.75 11.7348 11.0492 11.1364 10.4886C10.5455 9.92044 9.7538 9.63635 8.76137 9.63635C7.92046 9.63635 7.18183 9.86363 6.54546 10.3182C5.9091 10.7652 5.41289 11.4091 5.05683 12.25C4.70834 13.0909 4.5341 14.0985 4.5341 15.2727C4.5341 16.4621 4.70834 17.4848 5.05683 18.3409C5.40531 19.1894 5.89395 19.8447 6.52274 20.3068C7.1591 20.7614 7.90531 20.9886 8.76137 20.9886C9.36743 20.9886 9.9091 20.875 10.3864 20.6477C10.8712 20.4129 11.2765 20.0758 11.6023 19.6364C11.928 19.197 12.1515 18.6629 12.2727 18.0341H16.2045C16.1061 19.2689 15.7424 20.3636 15.1136 21.3182C14.4848 22.2652 13.6288 23.0076 12.5455 23.5455C11.4621 24.0758 10.1894 24.3409 8.72728 24.3409ZM24.6051 24.3523C23.4991 24.3523 22.5028 24.1553 21.6165 23.7614C20.7377 23.3598 20.0407 22.7689 19.5256 21.9886C19.018 21.2083 18.7642 20.2462 18.7642 19.1023C18.7642 18.1174 18.946 17.303 19.3097 16.6591C19.6733 16.0152 20.1695 15.5 20.7983 15.1136C21.4271 14.7273 22.1354 14.4356 22.9233 14.2386C23.7188 14.0341 24.5407 13.8864 25.3892 13.7955C26.4119 13.6894 27.2415 13.5947 27.8778 13.5114C28.5142 13.4205 28.9763 13.2841 29.2642 13.1023C29.5597 12.9129 29.7074 12.6212 29.7074 12.2273V12.1591C29.7074 11.303 29.4536 10.6402 28.946 10.1705C28.4384 9.70075 27.7074 9.4659 26.7528 9.4659C25.7453 9.4659 24.946 9.6856 24.3551 10.125C23.7718 10.5644 23.3778 11.0833 23.1733 11.6818L19.3324 11.1364C19.6354 10.0758 20.1354 9.18938 20.8324 8.47726C21.5294 7.75756 22.3816 7.21969 23.3892 6.86363C24.3968 6.49999 25.5104 6.31817 26.7301 6.31817C27.571 6.31817 28.4081 6.41666 29.2415 6.61363C30.0748 6.8106 30.8362 7.13635 31.5256 7.5909C32.215 8.03787 32.768 8.64772 33.1847 9.42044C33.6089 10.1932 33.821 11.1591 33.821 12.3182V24H29.8665V21.6023H29.7301C29.4801 22.0871 29.1278 22.5417 28.6733 22.9659C28.2263 23.3826 27.6619 23.7197 26.9801 23.9773C26.3059 24.2273 25.5142 24.3523 24.6051 24.3523ZM25.6733 21.3295C26.4991 21.3295 27.215 21.1667 27.821 20.8409C28.4271 20.5076 28.893 20.0682 29.2188 19.5227C29.5521 18.9773 29.7188 18.3826 29.7188 17.7386V15.6818C29.59 15.7879 29.3703 15.8864 29.0597 15.9773C28.7566 16.0682 28.4157 16.1477 28.0369 16.2159C27.6581 16.2841 27.2831 16.3447 26.9119 16.3977C26.5407 16.4508 26.2188 16.4962 25.946 16.5341C25.3324 16.6174 24.7831 16.7538 24.2983 16.9432C23.8134 17.1326 23.4309 17.3977 23.1506 17.7386C22.8703 18.072 22.7301 18.5038 22.7301 19.0341C22.7301 19.7917 23.0066 20.3636 23.5597 20.75C24.1127 21.1364 24.8172 21.3295 25.6733 21.3295ZM42.071 13.7727V24H37.9574V6.54544H41.8892V9.51135H42.0938C42.4953 8.53408 43.1354 7.75757 44.0142 7.18181C44.9006 6.60605 45.9953 6.31817 47.2983 6.31817C48.5028 6.31817 49.5521 6.57575 50.446 7.0909C51.3475 7.60605 52.0445 8.35226 52.5369 9.32954C53.0369 10.3068 53.2831 11.4924 53.2756 12.8864V24H49.1619V13.5227C49.1619 12.3561 48.8589 11.4432 48.2528 10.7841C47.6544 10.125 46.8248 9.79544 45.7642 9.79544C45.0445 9.79544 44.4044 9.95454 43.8438 10.2727C43.2907 10.5833 42.8551 11.0341 42.5369 11.625C42.2263 12.2159 42.071 12.9318 42.071 13.7727ZM63.9347 24.3068C62.5634 24.3068 61.3362 23.9545 60.2528 23.25C59.1695 22.5455 58.3134 21.5227 57.6847 20.1818C57.0559 18.8409 56.7415 17.2121 56.7415 15.2955C56.7415 13.3561 57.0597 11.7197 57.696 10.3864C58.34 9.04544 59.2074 8.03408 60.2983 7.35226C61.3892 6.66287 62.6051 6.31817 63.946 6.31817C64.9688 6.31817 65.8097 6.49241 66.4688 6.8409C67.1278 7.18181 67.6506 7.59469 68.0369 8.07954C68.4233 8.55681 68.7225 9.00757 68.9347 9.43181H69.1051V0.727264H73.2301V24H69.1847V21.25H68.9347C68.7225 21.6742 68.4157 22.125 68.0142 22.6023C67.6127 23.072 67.0824 23.4735 66.4233 23.8068C65.7642 24.1402 64.9347 24.3068 63.9347 24.3068ZM65.0824 20.9318C65.9536 20.9318 66.696 20.697 67.3097 20.2273C67.9233 19.75 68.3892 19.0871 68.7074 18.2386C69.0256 17.3902 69.1847 16.4015 69.1847 15.2727C69.1847 14.1439 69.0256 13.1629 68.7074 12.3295C68.3968 11.4962 67.9347 10.8485 67.321 10.3864C66.715 9.92423 65.9688 9.69317 65.0824 9.69317C64.1657 9.69317 63.4006 9.93181 62.7869 10.4091C62.1733 10.8864 61.7112 11.5455 61.4006 12.3864C61.09 13.2273 60.9347 14.1894 60.9347 15.2727C60.9347 16.3636 61.09 17.3371 61.4006 18.1932C61.7188 19.0417 62.1847 19.7121 62.7983 20.2045C63.4195 20.6894 64.1809 20.9318 65.0824 20.9318ZM80.1705 30.5455C79.6098 30.5455 79.0909 30.5 78.6136 30.4091C78.1439 30.3258 77.7689 30.2273 77.4886 30.1136L78.4432 26.9091C79.0417 27.0833 79.5758 27.1667 80.0455 27.1591C80.5152 27.1515 80.928 27.0038 81.2841 26.7159C81.6477 26.4356 81.9545 25.9659 82.2045 25.3068L82.5568 24.3636L76.2273 6.54544H80.5909L84.6136 19.7273H84.7955L88.8295 6.54544H93.2045L86.2159 26.1136C85.8902 27.0379 85.4583 27.8295 84.9205 28.4886C84.3826 29.1553 83.7235 29.6629 82.9432 30.0114C82.1705 30.3674 81.2462 30.5455 80.1705 30.5455Z" fill="white"/>
</g>
<defs>
<clipPath id="clip0_121_3">
<rect width="94" height="31" fill="white"/>
</clipPath>
</defs>
</svg>
