<svg width="40" height="40" viewBox="0 0 40 40" fill="none" xmlns="http://www.w3.org/2000/svg">
<path d="M12.1845 0C5.75329 0 0.519958 5.23333 0.519958 11.6646V27.8155C0.519958 34.2467 5.75329 39.48 12.1845 39.48H28.3354C34.7667 39.48 40 34.2467 40 27.8155V11.6646C40 5.23333 34.7667 0 28.3354 0H12.1845ZM12.1845 1.79455H28.3354C33.7967 1.79455 38.2055 6.20332 38.2055 11.6646V27.8155C38.2055 33.2767 33.7967 37.6855 28.3354 37.6855H12.1845C6.72327 37.6855 2.31451 33.2767 2.31451 27.8155V11.6646C2.31451 6.20332 6.72327 1.79455 12.1845 1.79455ZM31.0273 7.17819C30.5513 7.17819 30.0949 7.36726 29.7583 7.7038C29.4218 8.04034 29.2327 8.49679 29.2327 8.97274C29.2327 9.44868 29.4218 9.90513 29.7583 10.2417C30.0949 10.5782 30.5513 10.7673 31.0273 10.7673C31.5032 10.7673 31.9597 10.5782 32.2962 10.2417C32.6327 9.90513 32.8218 9.44868 32.8218 8.97274C32.8218 8.49679 32.6327 8.04034 32.2962 7.7038C31.9597 7.36726 31.5032 7.17819 31.0273 7.17819ZM20.26 9.87001C14.8196 9.87001 10.39 14.2996 10.39 19.74C10.39 25.1804 14.8196 29.61 20.26 29.61C25.7004 29.61 30.13 25.1804 30.13 19.74C30.13 14.2996 25.7004 9.87001 20.26 9.87001ZM20.26 11.6646C24.7306 11.6646 28.3354 15.2694 28.3354 19.74C28.3354 24.2106 24.7306 27.8155 20.26 27.8155C15.7894 27.8155 12.1845 24.2106 12.1845 19.74C12.1845 15.2694 15.7894 11.6646 20.26 11.6646Z" fill="white"/>
</svg>
