<svg width="40" height="41" viewBox="0 0 40 41" fill="none" xmlns="http://www.w3.org/2000/svg">
<path d="M20 0.47998C8.96481 0.47998 0 9.44479 0 20.48C0 24.027 0.972772 27.3373 2.59511 30.2269L0.032269 39.376C-0.00867472 39.5224 -0.0105247 39.677 0.0269036 39.8244C0.0643318 39.9717 0.139731 40.1067 0.245582 40.2158C0.351434 40.3249 0.48404 40.4044 0.630179 40.4463C0.776318 40.4881 0.930883 40.491 1.07846 40.4545L10.6182 38.0904C13.4214 39.5869 16.6023 40.48 20 40.48C31.0352 40.48 40 31.5152 40 20.48C40 9.44479 31.0352 0.47998 20 0.47998ZM20 2.21911C30.0952 2.21911 38.2609 10.3847 38.2609 20.48C38.2609 30.5752 30.0952 38.7408 20 38.7408C16.7635 38.7408 13.7323 37.8971 11.0971 36.4226C10.9044 36.3149 10.6779 36.2845 10.4637 36.3377L2.10937 38.408L4.34952 30.4154C4.38158 30.3025 4.39043 30.1842 4.37554 30.0678C4.36066 29.9513 4.32234 29.839 4.26291 29.7378C2.66147 27.0222 1.73913 23.8627 1.73913 20.48C1.73913 10.3847 9.90475 2.21911 20 2.21911ZM12.7327 10.0452C12.1753 10.0452 11.3792 10.2526 10.7252 10.9572C10.3324 11.3805 8.69565 12.9752 8.69565 15.7789C8.69565 18.702 10.7229 21.2242 10.9681 21.5483H10.9698V21.55C10.9465 21.5194 11.2809 22.0036 11.7272 22.5843C12.1736 23.1649 12.7977 23.9275 13.5819 24.7531C15.1501 26.4042 17.355 28.3125 20.0917 29.4796C21.352 30.0163 22.3462 30.3403 23.0995 30.5768C24.4955 31.0151 25.767 30.9485 26.7221 30.8078C27.4371 30.7025 28.2234 30.3592 29.0014 29.8669C29.7793 29.3745 30.5418 28.7623 30.8781 27.8322C31.1189 27.1654 31.2414 26.5492 31.2857 26.0421C31.3078 25.7886 31.3106 25.5649 31.2942 25.3577C31.2777 25.1505 31.2953 24.9919 31.1022 24.675C30.6974 24.0102 30.2389 23.9929 29.7605 23.7561C29.4947 23.6246 28.738 23.255 27.9789 22.8934C27.2208 22.5321 26.5643 22.2121 26.16 22.068C25.9046 21.9761 25.5927 21.8438 25.1427 21.8947C24.6927 21.9457 24.2482 22.2704 23.9895 22.6539C23.7442 23.0174 22.7569 24.1829 22.4558 24.5255C22.4518 24.5231 22.478 24.5351 22.359 24.4762C21.9867 24.292 21.5314 24.1353 20.8577 23.7799C20.1839 23.4245 19.3411 22.8997 18.4188 22.0866V22.0849C17.0461 20.8765 16.0846 19.3592 15.7812 18.8495C15.8017 18.8252 15.7788 18.8547 15.822 18.8122L15.8237 18.8105C16.1337 18.5051 16.4085 18.1404 16.6406 17.873C16.9698 17.4938 17.1151 17.1595 17.2724 16.8472C17.586 16.2247 17.4114 15.5398 17.23 15.1794V15.1777C17.2425 15.2026 17.1318 14.9584 17.0126 14.6767C16.893 14.3941 16.7406 14.0278 16.5778 13.6372C16.2522 12.8561 15.8887 11.9799 15.6726 11.4667V11.465C15.4179 10.8606 15.0734 10.4251 14.623 10.215C14.1725 10.005 13.7746 10.0647 13.7585 10.0639H13.7568C13.4354 10.0491 13.0826 10.0452 12.7327 10.0452ZM12.7327 11.7843C13.0679 11.7843 13.3984 11.7884 13.6753 11.8013C13.96 11.8155 13.9423 11.8167 13.8876 11.7911C13.8319 11.7652 13.9074 11.7567 14.0693 12.141C14.281 12.6435 14.6462 13.5228 14.9728 14.3064C15.1361 14.6982 15.2889 15.0659 15.411 15.3543C15.5331 15.6427 15.5992 15.8037 15.676 15.9572V15.9589L15.6776 15.9606C15.7529 16.1091 15.7462 16.014 15.7201 16.0659C15.5366 16.4301 15.5117 16.5195 15.3261 16.7334C15.0435 17.059 14.7552 17.4221 14.6026 17.5724C14.4691 17.7035 14.2282 17.9078 14.0778 18.3078C13.9271 18.7083 13.9975 19.2579 14.2391 19.6682C14.5609 20.2144 15.6212 21.9402 17.269 23.391C18.3067 24.3058 19.2735 24.9112 20.0459 25.3186C20.8182 25.726 21.4472 25.964 21.588 26.0336C21.9222 26.1991 22.2875 26.3275 22.7123 26.2765C23.1371 26.2255 23.5033 25.9678 23.7364 25.7042L23.7381 25.7025C24.0484 25.3507 24.9703 24.298 25.4127 23.6491C25.4315 23.6557 25.4253 23.6506 25.5723 23.7035V23.7052H25.574C25.6412 23.7291 26.482 24.1054 27.2317 24.4627C27.9813 24.8199 28.7422 25.1912 28.9895 25.3135C29.3463 25.4901 29.5149 25.6051 29.5584 25.6057C29.5614 25.6822 29.5643 25.7651 29.5533 25.891C29.5228 26.2402 29.4295 26.7237 29.2425 27.2412C29.1509 27.4945 28.6739 28.0171 28.0723 28.3978C27.4708 28.7785 26.7386 29.0474 26.4674 29.0873C25.6521 29.2074 24.6841 29.2513 23.6209 28.9175C22.8838 28.6861 21.9646 28.3866 20.7745 27.8798C18.3607 26.8504 16.3092 25.0987 14.8437 23.5557C14.111 22.7842 13.524 22.0661 13.1063 21.5228C12.6894 20.9805 12.5074 20.6983 12.3556 20.4987L12.3539 20.497C12.0845 20.1407 10.4348 17.8459 10.4348 15.7789C10.4348 13.5913 11.4509 12.7334 12.0007 12.141C12.2893 11.83 12.6049 11.7843 12.7327 11.7843Z" fill="white"/>
</svg>
